<svg data-noselect="" viewBox="126.5 167.8749999999965 347 260.25" width="128" height="128" ref="svg_canvas" preserveAspectRatio="none" version="1.1" xmlns="http://www.w3.org/2000/svg" style="background: #ffffff;">
    <defs></defs>
    <g id="shape_AjwXCJgVSQ" class="" ref="shape_AjwXCJgVSQ" key="shape_AjwXCJgVSQ" transform="translate(220,248.0321714893) rotate(0,80,49.967828510696) scale(1,1)" style="cursor:move;display:inline;opacity:1;" filter="">
            <g style="display:inline"><rect fill="rgba(0,0,0,0)" width="180" height="119.935657021393" x="-10" y="-10"></rect><svg version="1.1" id="图层_1" xmlns="http://www.w3.org/2000/svg" xmlns:xlink="http://www.w3.org/1999/xlink" x="0px" y="0px" width="160" height="99.935657021393" viewBox="10.189589500427246 43.904483795166016 179.6204071044922 112.19052124023438" enable-background="new 0 0 200 200" xml:space="preserve" preserveAspectRatio="none" class="style-removed" data-parent="shape_AjwXCJgVSQ">
<g>
	<path fill="#246fdd" d="M106.321,89.494c0,0,21.712-23.689,49.111-19.623c20.564,3.052,29.926,14.137,34.378,20.14H176.37
		c0,0-9.943-9.084-23.78-10.899C140.013,77.462,129.843,78.121,106.321,89.494z" stroke-width="0"></path>
	<path fill="#246fdd" d="M147.161,71.716c0,0-5.801-22.574-33.028-27.054S61.92,55.92,43.31,82.687l22.517-4.021
		c0,0,19.354-29.195,47.101-24.24c16.083,2.872,24.699,10.109,27.916,18.496L147.161,71.716z" stroke-width="0"></path>
	<path fill="#24dd7f" d="M62.38,83.893c0,0-46.698,7.782-51.696,38.255c-4.136,25.216,18.611,33.947,33.43,33.947
		c18.036,0,112.698,0,112.698,0l1.206-5.687c0,0-71.397,0.324-101.38,0c-15.968-0.172-28.147-4.996-28.147-22.574
		c0-14.992,12.867-26.502,29.065-32.034L62.38,83.893z" stroke-width="0"></path>
</g>
</svg></g>
        </g><g id="shape_W7YDZ35Q8m" class="brand_name" ref="shape_W7YDZ35Q8m" key="shape_W7YDZ35Q8m" transform="translate(202.52809143066003,111.2349152832) rotate(0,206.27399295228,203.822) scale(1,1)" style="cursor:move;display:inline;opacity:1;" filter="">
            <g style="display:inline"><svg xmlns="http://www.w3.org/2000/svg" version="1.1" xmlns:xlink="http://www.w3.org/1999/xlink" width="272" height="407.644" viewBox="0 0 272 407.644" preserveAspectRatio="none" data-parent="shape_W7YDZ35Q8m"><rect fill="rgba(0,0,0,0)" width="40" height="58" x="58" y="174.822"></rect><g data-width="39.730000000000004" transform="translate(58, 0)"><path d="M25.40-13.51L12.18-13.51L12.18 0L3.94 0L3.94-38.69L23.26-38.69Q28.54-38.69 30.80-37.93L30.80-37.93Q34.63-36.66 36.83-32.65L36.83-32.65Q38.45-29.64 38.45-26.10L38.45-26.10Q38.45-23.14 37.38-20.50Q36.31-17.86 34.39-16.18L34.39-16.18Q32.65-14.67 30.71-14.09Q28.77-13.51 25.40-13.51L25.40-13.51ZM12.18-31.78L12.18-20.42L23.37-20.42Q26.39-20.42 27.61-21.34L27.61-21.34Q29.41-22.79 29.41-26.39L29.41-26.39Q29.41-30.28 26.68-31.38L26.68-31.38Q25.69-31.78 23.55-31.78L23.55-31.78L12.18-31.78Z" transform="translate(0 223.822) skewX(-14)" fill="#246fdd" stroke="#246fdd" stroke-width="0.097" data-glyph-w="39.730000000000004" data-glyph-h="58" data-glyph-ascender="49.822" data-glyph-descender="-8.178"></path></g></svg></g>
        </g>
  </svg>